<svg width="2971" height="2699" viewBox="0 0 2971 2699" fill="none" xmlns="http://www.w3.org/2000/svg">
<path d="M2119.68 2242.92C1813.44 2368.48 1573.16 2266.05 1519.59 2178.21C1788.06 2263.61 1973.46 2229.25 2053.24 2199.1C2133.01 2168.95 2196.76 2076.61 2098.71 2022.91C2028.23 1984.31 1837.1 2021.62 1643.86 2090.16C1709.25 2115.67 1765.14 2137.41 1788.22 2141.97C1835.99 2151.4 1892.93 2130.2 1915.43 2118.42C1920.88 2143.98 1855.11 2173.73 1758.59 2167.41C1710.42 2164.25 1668.66 2135.79 1598.46 2106.83C1538.12 2129.72 1478.48 2155.33 1423.17 2182.29C1177.25 2302.15 895.427 2307.28 919.297 2144.17C943.168 1981.05 1269.04 1985.68 1353.97 1994C1404.83 1998.99 1508.35 2037.56 1602.82 2074.19C1801.87 1993.72 1985.12 1928.86 2127.95 1998.34C2317.27 2090.43 2201.32 2199.77 2119.68 2242.92Z" fill="url(#paint0_angular_39_24)"/>
<path d="M1561.31 2092.7C1392.31 2036.96 1039.04 1971.97 978.051 2157.92C971.361 2220.59 1078.65 2295.29 1561.31 2092.7Z" fill="url(#paint1_linear_39_24)"/>
<path d="M1239.9 1346.72C1268.97 1437.98 1358.94 1499.34 1400.3 1518.62C1307.72 1504.71 1194.04 1430.17 1135.3 1367.72C1100.47 1330.68 1027.75 1100.33 1033.95 979.883C1040.23 858.047 961.322 693.071 907.699 617.751C966.063 657.165 1092.74 761.589 1132.54 863.971C1182.29 991.948 1203.58 1232.66 1239.9 1346.72Z" fill="#2EB63D"/>
<path d="M1630.28 2212.78C1538.13 2152.13 1377.15 2025.82 1395.6 1740.5C1417 1631.28 1504.97 1550.8 1573.66 1480.6C1639.31 1413.5 1675.17 1382.99 1688.13 1360.56C1689.82 1356.27 1691.46 1352.29 1693.04 1348.63C1692.17 1352.45 1690.55 1356.36 1688.13 1360.56C1629.47 1508.52 1502.15 2017.86 1568.2 2164.87C1604.86 2206.98 1730.36 2233.45 1792.54 2243.88C1846.49 2250.66 1832.76 2250.63 1792.54 2243.88C1782.7 2242.65 1770.61 2241.18 1756.02 2239.49C1904.29 2295.5 1856.3 2298.3 1765.72 2269.53L1770.37 2283.92L1660.99 2228.38C1650.58 2223.43 1640.28 2218.22 1630.28 2212.78Z" fill="#B4E1B9"/>
<path d="M1636.81 1783.08L1696.36 1550.35C1863.83 1744.36 1760 1977.05 1664.59 2018.81C1687.78 1949.51 1653.29 1872.52 1636.81 1783.08Z" fill="#2EB63D"/>
<path d="M2103.63 1207.09C2092.26 1426 1825.29 1504.6 1693.23 1516.54C1925.02 1402.43 1955.88 1206.94 1984.91 993.593C2008.14 822.915 2144.98 688.598 2210.49 642.774C2114.06 767.41 2117.83 933.445 2103.63 1207.09Z" fill="#B4E1B9"/>
<ellipse cx="1573.81" cy="1114.57" rx="221.268" ry="184.407" transform="rotate(-92.0693 1573.81 1114.57)" fill="#2EB63D"/>
<path d="M1454.18 320.207C793.537 320.207 435.79 967.125 435.79 1370.54C435.79 2357.19 1322.08 2531.22 1941.15 2422.45C1963.71 2422.45 1966.78 2419.73 1970.88 2427.42C1866.82 2460.04 1977.03 2450.71 1977.03 2457.15C1896.04 2485.86 1986.6 2469.14 1992.93 2471.51C1615.12 2545.32 1652.03 2545.32 1405.97 2545.32C680.595 2545.32 272.445 2023.32 248.448 1335.52C232.112 867.323 662.58 102.817 1574.62 154.49C2273 194.058 2610.27 721.058 2666.82 967.125C2854.57 1784.23 2540.41 2138.66 2341.27 2255.9C2686.61 1882.98 2693.17 1489.76 2666.82 1335.52C2610.51 1821.19 2523.84 1851 2439.05 1966.19C2854.04 1044.62 2297.27 320.207 1454.18 320.207Z" fill="url(#paint2_linear_39_24)"/>
<defs>
<radialGradient id="paint0_angular_39_24" cx="0" cy="0" r="1" gradientUnits="userSpaceOnUse" gradientTransform="translate(1598.01 2150.95) rotate(138.917) scale(30.6697 55.7966)">
<stop offset="0.39375" stop-color="#6DC577"/>
<stop offset="0.891408" stop-color="#B4E1B9"/>
</radialGradient>
<linearGradient id="paint1_linear_39_24" x1="1265.48" y1="2032.56" x2="1438.78" y2="1999.79" gradientUnits="userSpaceOnUse">
<stop stop-color="#2EB63D"/>
<stop offset="1" stop-color="#21940E" stop-opacity="0"/>
</linearGradient>
<linearGradient id="paint2_linear_39_24" x1="1486.45" y1="152.322" x2="1486.45" y2="2545.32" gradientUnits="userSpaceOnUse">
<stop stop-color="#2EB63D"/>
<stop offset="1" stop-color="#B4E1B9"/>
</linearGradient>
</defs>
</svg>
